<svg width="120" height="24" viewBox="0 0 120 24" fill="none" xmlns="http://www.w3.org/2000/svg">
<path fill-rule="evenodd" clip-rule="evenodd" d="M11.3023 4.6087C10.5317 4.6087 9.90698 5.19267 9.90698 5.91304V18.9565C9.90698 20.6374 8.4493 22 6.65116 22H3.30435C2.58398 22 2 21.416 2 20.6957C2 19.9753 2.58398 19.3913 3.30435 19.3913H6.65116C6.90804 19.3913 7.11628 19.1966 7.11628 18.9565V5.91304C7.11628 3.75193 8.99044 2 11.3023 2C13.6142 2 15.4884 3.75193 15.4884 5.91304V13.3043H17.3488C19.9176 13.3043 22 15.2509 22 17.6522C22 20.0534 19.9176 22 17.3488 22H15.9535C14.1554 22 12.6977 20.6374 12.6977 18.9565V5.91304C12.6977 5.19267 12.073 4.6087 11.3023 4.6087ZM15.4884 15.913V18.9565C15.4884 19.1966 15.6966 19.3913 15.9535 19.3913H17.3488C18.3763 19.3913 19.2093 18.6127 19.2093 17.6522C19.2093 16.6917 18.3763 15.913 17.3488 15.913H15.4884Z" fill="#208B3A"/>
<path d="M39.6461 19.7165H36.5962V7.67454H32V4.66142H44.2317V7.67454H39.6461V19.7165Z" fill="#0A1931"/>
<path d="M54.7891 13.9948C54.7891 14.8346 54.6363 15.6185 54.3306 16.3465C54.0249 17.0674 53.609 17.6938 53.0829 18.2257C52.5568 18.7507 51.9383 19.1671 51.2273 19.4751C50.5235 19.776 49.7664 19.9265 48.9559 19.9265C48.1525 19.9265 47.3954 19.776 46.6844 19.4751C45.9806 19.1671 45.3621 18.7507 44.8289 18.2257C44.3028 17.6938 43.8869 17.0674 43.5812 16.3465C43.2755 15.6185 43.1226 14.8346 43.1226 13.9948C43.1226 13.1409 43.2755 12.35 43.5812 11.622C43.8869 10.8941 44.3028 10.2677 44.8289 9.74278C45.3621 9.21085 45.9806 8.7944 46.6844 8.49344C47.3954 8.19248 48.1525 8.042 48.9559 8.042C49.7664 8.042 50.5235 8.18548 51.2273 8.47244C51.9383 8.75241 52.5568 9.15486 53.0829 9.67979C53.609 10.1977 54.0249 10.8241 54.3306 11.5591C54.6363 12.287 54.7891 13.0989 54.7891 13.9948ZM51.8565 13.9948C51.8565 13.5328 51.7783 13.1164 51.6219 12.7454C51.4726 12.3675 51.2664 12.0455 51.0034 11.7795C50.7403 11.5066 50.4311 11.3001 50.0756 11.1601C49.7273 11.0131 49.354 10.9396 48.9559 10.9396C48.5578 10.9396 48.181 11.0131 47.8255 11.1601C47.4771 11.3001 47.1714 11.5066 46.9084 11.7795C46.6524 12.0455 46.4498 12.3675 46.3005 12.7454C46.1512 13.1164 46.0766 13.5328 46.0766 13.9948C46.0766 14.4287 46.1512 14.8311 46.3005 15.2021C46.4498 15.5731 46.6524 15.895 46.9084 16.168C47.1714 16.4409 47.4771 16.6579 47.8255 16.8189C48.181 16.9729 48.5578 17.0499 48.9559 17.0499C49.354 17.0499 49.7273 16.9764 50.0756 16.8294C50.4311 16.6824 50.7403 16.4759 51.0034 16.21C51.2664 15.944 51.4726 15.622 51.6219 15.2441C51.7783 14.8661 51.8565 14.4497 51.8565 13.9948Z" fill="#0A1931"/>
<path d="M59.332 19.7165H56.3994V4H59.332V13.9108L63.6723 8.49344H67.0208L63.2351 13.1759L67.0208 19.7165H63.6723L61.3582 15.6325L59.332 18.2782V19.7165Z" fill="#0A1931"/>
<path d="M71.1052 24H68.1726V8.47244H68.8764L70.0388 9.82677C70.3018 9.5818 70.5898 9.35083 70.9026 9.13386C71.2154 8.91689 71.5389 8.73141 71.873 8.57743C72.2143 8.41645 72.5662 8.29046 72.9287 8.19948C73.2913 8.10849 73.6575 8.06299 74.0271 8.06299C74.8305 8.06299 75.5841 8.20647 76.2879 8.49344C76.9989 8.7734 77.6174 9.17235 78.1435 9.69029C78.6767 10.2082 79.0961 10.8346 79.4018 11.5696C79.7075 12.2975 79.8604 13.1059 79.8604 13.9948C79.8604 14.9186 79.7075 15.7515 79.4018 16.4934C79.0961 17.2283 78.6767 17.8548 78.1435 18.3727C77.6174 18.8836 76.9989 19.2756 76.2879 19.5486C75.5841 19.8215 74.8305 19.958 74.0271 19.958C73.7712 19.958 73.5153 19.93 73.2593 19.874C73.0105 19.818 72.7617 19.7445 72.5128 19.6535C72.2711 19.5556 72.0294 19.4471 71.7877 19.3281C71.5531 19.2091 71.3256 19.0866 71.1052 18.9606V24ZM76.9384 13.9948C76.9384 13.5188 76.8602 13.0919 76.7038 12.7139C76.5545 12.336 76.3484 12.0175 76.0853 11.7585C75.8223 11.4926 75.513 11.2896 75.1575 11.1496C74.8021 11.0096 74.4253 10.9396 74.0271 10.9396C73.629 10.9396 73.2522 11.0096 72.8968 11.1496C72.5484 11.2896 72.2427 11.4926 71.9796 11.7585C71.7166 12.0175 71.5069 12.336 71.3505 12.7139C71.2012 13.0919 71.1265 13.5188 71.1265 13.9948C71.1265 14.4497 71.2012 14.8661 71.3505 15.2441C71.5069 15.622 71.7166 15.944 71.9796 16.21C72.2427 16.4759 72.5484 16.6824 72.8968 16.8294C73.2522 16.9764 73.629 17.0499 74.0271 17.0499C74.4253 17.0499 74.8021 16.9764 75.1575 16.8294C75.513 16.6824 75.8223 16.4759 76.0853 16.21C76.3484 15.944 76.5545 15.622 76.7038 15.2441C76.8602 14.8661 76.9384 14.4497 76.9384 13.9948Z" fill="#0A1931"/>
<path d="M84.414 19.7165H81.4813V4H84.414V19.7165Z" fill="#0A1931"/>
<path d="M97.7014 19.7165H96.9976L95.8672 18.1732C95.5899 18.4182 95.2949 18.6492 94.9821 18.8661C94.6764 19.0761 94.3529 19.2616 94.0116 19.4226C93.6704 19.5766 93.3185 19.699 92.9559 19.79C92.6004 19.881 92.2378 19.9265 91.8682 19.9265C91.0648 19.9265 90.3076 19.7935 89.5967 19.5276C88.8929 19.2616 88.2744 18.8766 87.7412 18.3727C87.2151 17.8618 86.7992 17.2388 86.4935 16.5039C86.1878 15.769 86.0349 14.9326 86.0349 13.9948C86.0349 13.1199 86.1878 12.3185 86.4935 11.5906C86.7992 10.8556 87.2151 10.2257 87.7412 9.70079C88.2744 9.17585 88.8929 8.7699 89.5967 8.48294C90.3076 8.18898 91.0648 8.042 91.8682 8.042C92.2378 8.042 92.604 8.08749 92.9666 8.17848C93.3291 8.26947 93.681 8.39545 94.0223 8.55643C94.3635 8.71741 94.687 8.90639 94.9927 9.12336C95.3055 9.34033 95.597 9.5748 95.8672 9.82677L96.9976 8.49344H97.7014V19.7165ZM94.7688 13.9948C94.7688 13.6028 94.6906 13.2248 94.5342 12.8609C94.3849 12.4899 94.1787 12.1645 93.9157 11.8845C93.6526 11.5976 93.3434 11.3701 92.9879 11.2021C92.6395 11.0271 92.2663 10.9396 91.8682 10.9396C91.47 10.9396 91.0932 11.0061 90.7378 11.1391C90.3894 11.2721 90.0837 11.4681 89.8207 11.727C89.5647 11.986 89.3621 12.308 89.2128 12.6929C89.0635 13.0709 88.9889 13.5048 88.9889 13.9948C88.9889 14.4847 89.0635 14.9221 89.2128 15.3071C89.3621 15.685 89.5647 16.0035 89.8207 16.2625C90.0837 16.5214 90.3894 16.7174 90.7378 16.8504C91.0932 16.9834 91.47 17.0499 91.8682 17.0499C92.2663 17.0499 92.6395 16.9659 92.9879 16.7979C93.3434 16.6229 93.6526 16.3955 93.9157 16.1155C94.1787 15.8285 94.3849 15.5031 94.5342 15.1391C94.6906 14.7682 94.7688 14.3867 94.7688 13.9948Z" fill="#0A1931"/>
<path d="M102.841 19.7165H99.9302V8.47244H100.634L101.594 9.5643C102.063 9.14436 102.593 8.8224 103.183 8.59843C103.78 8.36745 104.402 8.25197 105.049 8.25197C105.746 8.25197 106.403 8.38495 107.022 8.65092C107.64 8.90989 108.181 9.27034 108.643 9.73228C109.105 10.1872 109.467 10.7227 109.73 11.3386C110.001 11.9475 110.136 12.5984 110.136 13.2913V19.7165H107.224V13.2913C107.224 12.9974 107.168 12.7209 107.054 12.4619C106.94 12.196 106.784 11.965 106.585 11.769C106.386 11.5731 106.154 11.4191 105.891 11.3071C105.628 11.1951 105.348 11.1391 105.049 11.1391C104.743 11.1391 104.455 11.1951 104.185 11.3071C103.915 11.4191 103.68 11.5731 103.481 11.769C103.282 11.965 103.126 12.196 103.012 12.4619C102.898 12.7209 102.841 12.9974 102.841 13.2913V19.7165Z" fill="#0A1931"/>
<path d="M117.793 19.7165C117.089 19.7165 116.428 19.5871 115.809 19.3281C115.19 19.0621 114.647 18.7017 114.177 18.2467C113.715 17.7848 113.349 17.2493 113.079 16.6404C112.816 16.0315 112.684 15.3806 112.684 14.6877V11.3491H111.266V8.49344H112.684V4H115.585V8.49344H120V11.3491H115.585V14.6877C115.585 14.9886 115.642 15.2721 115.756 15.5381C115.869 15.797 116.026 16.0245 116.225 16.2205C116.424 16.4164 116.659 16.5739 116.929 16.6929C117.199 16.8049 117.487 16.8609 117.793 16.8609H120V19.7165H117.793Z" fill="#0A1931"/>
</svg>
